<?xml version="1.0" encoding="utf-8"?>
<!-- Generator: Adobe Illustrator 18.1.1, SVG Export Plug-In . SVG Version: 6.00 Build 0)  -->
<svg version="1.1" id="Layer_1" xmlns="http://www.w3.org/2000/svg" xmlns:xlink="http://www.w3.org/1999/xlink" x="0px" y="0px"
	 viewBox="0 0 140.3 131.7" enable-background="new 0 0 140.3 131.7" xml:space="preserve">
<g>
	<path fill="#77C7CB" d="M134.5,65.6c0,32.7-28.9,59.5-64.3,59.5C34.9,125,5.9,98.3,5.9,65.6c0-32.7,28.9-59.5,64.3-59.5
		C105.6,6.1,134.5,32.9,134.5,65.6z"/>
	<path fill="none" stroke="#DADADA" stroke-width="7" stroke-miterlimit="10" d="M134.5,65.6c0,32.7-28.9,59.5-64.3,59.5
		C34.9,125,5.9,98.3,5.9,65.6c0-32.7,28.9-59.5,64.3-59.5C105.6,6.1,134.5,32.9,134.5,65.6z"/>
</g>
<g>
	<path d="M35.8,81.7l-2.3,7c-0.4,1.1-0.6,1.8-0.6,2.1c0,0.6,0.3,1,0.8,1.2c0.5,0.3,1.2,0.4,1.9,0.4h0.6L36,93.2H25.5l0.3-0.8
		c0.8,0,1.5-0.1,2.1-0.4c0.6-0.3,0.9-0.6,1.1-0.9c0.2-0.3,0.5-1.1,0.9-2.3L35,73.7c0.4-1.2,0.6-1.9,0.6-2.2c0-0.8-0.8-1.2-2.5-1.2
		h-0.9l0.3-0.8h7.3c2,0,3.4,0,4.4,0.1c1,0.1,1.9,0.4,2.9,0.9c1,0.5,1.8,1.2,2.3,2c0.5,0.8,0.8,1.7,0.8,2.6c0,1.7-0.8,3.2-2.4,4.6
		c-1.6,1.4-5,2-10,2H35.8z M36.1,80.9h1.1c2,0,3.5-0.2,4.8-0.5c1.2-0.3,2.3-1,3.2-2.2c0.9-1.1,1.3-2.4,1.3-3.8
		c0-1.1-0.3-1.9-0.8-2.6c-0.5-0.7-1.2-1.1-1.9-1.3c-0.7-0.2-1.8-0.2-3.3-0.2h-0.9L36.1,80.9z"/>
	<path d="M55.6,89.3h0.9c-0.6,1.1-1.4,2.1-2.4,3c-1,0.9-1.9,1.3-2.8,1.3c-0.6,0-1.1-0.2-1.6-0.6c-0.5-0.4-0.7-1-0.7-1.7
		c0-0.6,0.3-1.8,1-3.6l2-5.3c0.5-1.2,0.7-2,0.7-2.3c0-0.2-0.1-0.4-0.2-0.5c-0.1-0.1-0.3-0.2-0.6-0.2c-0.5,0-1.1,0.4-1.8,1.1
		c-0.7,0.7-1.2,1.3-1.5,1.9h-0.9c0.7-1.3,1.5-2.3,2.4-3c0.9-0.7,1.8-1.1,2.6-1.1c0.6,0,1.1,0.2,1.5,0.6c0.4,0.4,0.6,0.9,0.6,1.5
		c0,0.6-0.3,1.7-0.9,3.4l-1.7,4.5c-0.6,1.6-0.9,2.7-0.9,3.1c0,0.3,0.1,0.6,0.2,0.8c0.1,0.2,0.4,0.3,0.7,0.3
		C53.2,92.4,54.3,91.4,55.6,89.3z M53.8,70.7c0-0.4,0.2-0.8,0.5-1.1c0.3-0.3,0.7-0.4,1.2-0.4c0.5,0,0.9,0.1,1.2,0.4
		c0.3,0.3,0.5,0.7,0.5,1.1c0,0.4-0.2,0.8-0.5,1.1c-0.3,0.3-0.7,0.5-1.2,0.5c-0.5,0-0.9-0.2-1.2-0.5C53.9,71.4,53.8,71.1,53.8,70.7z"
		/>
	<path d="M64.3,89h0.9c-1.3,3.1-3,4.7-5.1,4.7c-0.7,0-1.3-0.2-1.7-0.6c-0.4-0.4-0.6-1-0.6-1.6c0-0.6,0.4-2.2,1.3-4.7l4.5-13.5
		c0.4-1.1,0.6-1.8,0.6-2c0-0.3-0.1-0.5-0.3-0.6c-0.2-0.1-0.6-0.2-1.3-0.2h-0.8l0.3-0.7c2.1,0,3.7-0.2,4.7-0.6h0.5l-6.3,18.5
		c-0.1,0.3-0.3,0.8-0.6,1.6c-0.4,1-0.6,1.8-0.6,2.3c0,0.3,0.1,0.6,0.2,0.8c0.2,0.2,0.4,0.3,0.7,0.3c0.4,0,1-0.3,1.7-0.8
		C63,91.2,63.7,90.3,64.3,89z"/>
	<path d="M78.7,78.6h2.4l-3.6,10.2c-0.5,1.5-0.8,2.4-0.8,2.7c0,0.2,0.1,0.4,0.2,0.5c0.1,0.1,0.3,0.2,0.5,0.2c0.9,0,1.9-0.9,3.1-2.8
		h0.8c-0.5,1-1.2,2-2.2,2.9c-0.9,0.9-1.8,1.3-2.6,1.3c-0.6,0-1.1-0.2-1.4-0.6c-0.3-0.4-0.5-0.9-0.5-1.5c0-0.5,0.1-1.1,0.4-1.9
		c-0.6,0.9-1.4,1.8-2.5,2.7c-1.1,0.9-2.1,1.3-3.1,1.3c-0.9,0-1.7-0.3-2.3-1c-0.7-0.7-1-1.6-1-2.8c0-1.6,0.5-3.3,1.5-5.1
		c1-1.8,2.4-3.3,4-4.5c1.6-1.2,3.1-1.8,4.2-1.8c0.7,0,1.2,0.1,1.6,0.4c0.4,0.3,0.7,0.7,0.8,1.3L78.7,78.6z M68.4,90.3
		c0,0.8,0.1,1.3,0.4,1.7c0.3,0.4,0.7,0.6,1.2,0.6c0.9,0,1.9-0.6,3.1-1.7c1.2-1.1,2.3-2.9,3.2-5.2c0.9-2.3,1.3-3.9,1.3-4.8
		c0-0.5-0.1-0.9-0.4-1.3c-0.3-0.3-0.7-0.5-1.2-0.5c-1.6,0-3.3,1.4-5,4.2C69.3,86.3,68.4,88.6,68.4,90.3z"/>
	<path d="M91.6,78.9l-0.3,0.8h-2.9l-2.6,7.6c-0.8,2.5-1.3,4-1.3,4.4c0,0.3,0.1,0.5,0.2,0.6c0.1,0.1,0.3,0.2,0.6,0.2
		c0.5,0,1.1-0.4,1.8-1.2c0.8-0.8,1.4-1.8,2-3H90c-0.8,1.7-1.7,3.1-2.7,4c-1,0.9-1.9,1.4-2.8,1.4c-0.7,0-1.2-0.2-1.6-0.6
		s-0.6-0.9-0.6-1.6c0-0.5,0.4-2,1.2-4.4l2.5-7.4h-2.7l0.3-0.8h2.7l1.8-5.3h2.3l-1.8,5.3H91.6z"/>
	<path d="M99.8,88.7h0.9c-1.6,3.3-3.8,4.9-6.3,4.9c-1.1,0-1.9-0.3-2.6-1c-0.7-0.7-1-1.6-1-2.7c0-1.4,0.4-3.1,1.3-4.9
		c0.9-1.8,2.1-3.4,3.7-4.7c1.6-1.3,3-2,4.1-2c0.7,0,1.3,0.2,1.7,0.6c0.4,0.4,0.6,0.9,0.6,1.5c0,1.3-0.7,2.5-2.1,3.6
		c-1.4,1.2-3.5,2.3-6.3,3.3c-0.4,1-0.5,2-0.5,2.9c0,0.7,0.2,1.3,0.5,1.7c0.3,0.4,0.8,0.6,1.4,0.6C96.9,92.6,98.4,91.3,99.8,88.7z
		 M94,86.6c1.7-0.7,3.2-1.6,4.5-2.8c1.3-1.2,2-2.3,2-3.2c0-0.4-0.1-0.8-0.3-1c-0.2-0.2-0.5-0.3-0.9-0.3c-0.8,0-1.7,0.7-2.7,2
		C95.5,82.7,94.6,84.4,94,86.6z"/>
	<path d="M110.7,89.3c0,1.1-0.5,2.1-1.4,3c-0.9,0.9-2.3,1.4-4.1,1.4c-1.3,0-2.3-0.3-3-0.8c-0.7-0.5-1-1.1-1-1.7
		c0-0.3,0.1-0.6,0.3-0.8c0.2-0.2,0.5-0.3,0.8-0.3c0.7,0,1,0.3,1,1c0,0.2,0,0.4-0.1,0.6c-0.1,0.1-0.1,0.2-0.1,0.3
		c0,0.3,0.2,0.5,0.6,0.7c0.4,0.2,0.9,0.3,1.4,0.3c0.9,0,1.7-0.2,2.4-0.7c0.7-0.5,1.1-1.2,1.1-2.1c0-0.8-0.5-2-1.5-3.6
		c-1.2-1.9-1.7-3.3-1.7-4.1c0-1.1,0.5-2.1,1.5-2.8c1-0.8,2.1-1.2,3.4-1.2c0.9,0,1.7,0.2,2.4,0.6c0.7,0.4,1,0.9,1,1.3
		c0,0.6-0.3,0.9-0.9,0.9c-0.4,0-0.7-0.3-0.9-1c-0.2-0.8-0.8-1.1-1.7-1.1c-0.7,0-1.4,0.2-1.9,0.5c-0.5,0.4-0.8,0.8-0.8,1.4
		c0,0.8,0.4,1.9,1.3,3.3c0.8,1.3,1.4,2.2,1.6,2.9C110.6,87.9,110.7,88.6,110.7,89.3z"/>
</g>
<g>
	<path d="M30.7,32.4h3.2l6.5,30.2h-4l-1.1-5.9h-6L28,62.6h-3.9L30.7,32.4z M34.6,53.5l-0.9-4.8c-0.6-3.3-1.1-6.8-1.5-10.5
		c-0.2,1.8-0.4,3.6-0.7,5.5c-0.3,1.9-0.6,3.8-1,5.9l-0.7,3.9H34.6z"/>
	<path d="M52.9,47.6c-0.2-1.3-0.5-2.3-0.9-3.2c-0.4-0.8-0.9-1.4-1.5-1.8c-0.6-0.4-1.4-0.6-2.2-0.6c-0.8,0-1.5,0.2-2,0.6
		c-0.3,0.2-0.5,0.4-0.8,0.8c-0.3,0.3-0.5,0.8-0.8,1.2V32c-0.1,0-0.2,0-0.3,0c0.6,0-0.2,0-0.3,0.1c-0.3,0.1-0.7,0.1-1,0.1
		c-0.4,0-0.8,0-1.2-0.1c-0.3,0.1-0.7,0.2-1,0.2v30.3h3.7V60c0.5,1.1,1.1,1.9,1.6,2.3c0.5,0.4,1.2,0.6,2.1,0.6c1.7,0,2.9-0.9,3.7-2.6
		c0.8-1.7,1.2-4.4,1.2-8.1C53.2,50.5,53.1,48.9,52.9,47.6z M48.8,58c-0.4,1-1,1.6-1.9,1.6c-0.9,0-1.5-0.5-1.8-1.6
		c-0.4-1.1-0.5-2.9-0.5-5.5c0-2.6,0.2-4.4,0.5-5.5c0.4-1.1,1-1.6,1.8-1.6c0.9,0,1.5,0.5,1.9,1.6c0.4,1,0.5,2.8,0.5,5.6
		C49.3,55.2,49.1,57,48.8,58z"/>
	<path d="M63.7,42.8L63.2,46c-1.1-0.7-1.7-0.7-2.8-0.7c-0.4,0-0.8,0.1-1.1,0.2c-0.3,0.1-0.6,0.3-0.9,0.5c-0.2,0.2-0.4,0.4-0.6,0.7
		c-0.1,0.3-0.2,0.6-0.2,0.9c0,1,1,2.1,3,3.4c0.8,0.5,1.5,1.1,2,1.5c0.5,0.5,1,0.9,1.2,1.3c0.6,0.8,0.9,1.9,0.9,3.1
		c0,1.8-0.6,3.3-1.8,4.3c-1.2,1.1-2.8,1.6-4.9,1.6c-1.3,0-2.5-0.3-3.8-1v-3.6c1.3,0.8,2.4,1.2,3.6,1.2c2,0,3-0.8,3-2.5
		c0-0.6-0.2-1.2-0.5-1.6c-0.2-0.2,0.4,0.3,0,0c-0.4-0.3-1.6-1.4-2.1-1.8c-1.8-1.2-3.1-2.2-3.7-3.1c-0.6-0.9-1-1.9-1-3.1
		c0-1.6,0.6-3,1.8-4c1.2-1,2.7-1.5,4.6-1.5C61.2,41.9,62.5,42.2,63.7,42.8z"/>
	<path d="M70.1,32.4h10.9v3.4h-6.8v9.5h6.1v3.4h-6.1v13.8h-4.1V32.4z"/>
	<path d="M84,33.7c0.7,0,1.3,0.2,1.8,0.7c0.5,0.5,0.7,1.1,0.7,1.8c0,0.7-0.2,1.3-0.7,1.8c-0.5,0.5-1.1,0.7-1.8,0.7
		c-0.7,0-1.3-0.2-1.8-0.7c-0.5-0.5-0.7-1.1-0.7-1.8c0-0.7,0.2-1.3,0.7-1.8C82.8,34,83.4,33.7,84,33.7z M82.3,42.3H86v20.2h-3.8V42.3
		z"/>
	<path d="M87.5,42.3h3.7v2.5c0.6-1.1,1.3-1.8,1.9-2.2c0.6-0.4,1.5-0.7,2.5-0.7v3.9c-0.3,0-0.5-0.1-0.7-0.1c-1.3,0-2.3,0.3-2.9,1
		c-0.6,0.7-0.8,1.9-0.8,3.6v12.2h-3.7V42.3z"/>
	<path d="M104.8,42.8v3.5c-0.9-0.7-1.9-1-2.9-1c-0.3,0-0.7,0.1-0.9,0.2c-0.3,0.1-0.5,0.3-0.8,0.5c-0.2,0.2-0.4,0.4-0.5,0.7
		c-0.1,0.3-0.2,0.6-0.2,0.9c0,1,0.9,2.1,2.6,3.4c0.7,0.5,1.3,1.1,1.8,1.5c0.5,0.5,0.8,0.9,1.1,1.3c0.5,0.8,0.8,1.9,0.8,3.1
		c0,1.8-0.5,3.3-1.6,4.3c-1,1.1-2.4,1.6-4.2,1.6c-1.1,0-2.2-0.3-3.3-1v-3.6c1.1,0.8,2.1,1.2,3.1,1.2c1.7,0,2.6-0.8,2.6-2.5
		c0-0.6-0.2-1.2-0.5-1.6c-0.1-0.2-0.4-0.5-0.7-0.8c-0.3-0.3-0.7-0.6-1.2-1c-1.6-1.2-2.6-2.2-3.2-3.1c-0.5-0.9-0.8-1.9-0.8-3.1
		c0-1.6,0.5-3,1.5-4c1-1,2.3-1.5,4-1.5C102.6,41.9,103.7,42.2,104.8,42.8z"/>
	<path d="M107.6,36.7h3.7v5.7h2v3h-2v17.2h-3.7V45.3h-2.1v-3h2.1V36.7z"/>
</g>
</svg>
