<?xml version="1.0" encoding="utf-8"?>
<!-- Generator: Adobe Illustrator 18.1.1, SVG Export Plug-In . SVG Version: 6.00 Build 0)  -->
<svg version="1.1" xmlns="http://www.w3.org/2000/svg" xmlns:xlink="http://www.w3.org/1999/xlink" x="0px" y="0px"
	 viewBox="0 0 399.3 112.7" enable-background="new 0 0 399.3 112.7" xml:space="preserve">
<g id="Background">
	<rect x="-53.7" y="-192.7" fill="#EAEBED" width="509.3" height="500"/>
	<g id="Frame">
		<rect x="-53.7" y="-172.7" fill="#FFFFFF" width="510" height="0.4"/>
		<rect x="-53.7" y="-152.7" fill="#FFFFFF" width="510" height="0.4"/>
		<rect x="438.1" y="-192.7" fill="#FFFFFF" width="0.4" height="500"/>
		<rect x="-33.7" y="-192.7" fill="#FFFFFF" width="0.4" height="500"/>
		<rect x="-53.7" y="286.9" fill="#FFFFFF" width="510" height="0.4"/>
	</g>
	<g id="Text">
		<text transform="matrix(1 0 0 1 -26.1662 -158.6349)" fill="#333333" font-family="'Helvetica'" font-size="10">Find us on Facebook Badge</text>
		<text transform="matrix(1 0 0 1 382.7127 -158.6349)" fill="#333333" font-family="'Helvetica'" font-size="10">CMYK / .ai</text>
	</g>
</g>
<g id="White">
</g>
<g id="Blue">
	<g>
		<g>
			<path fill="#3A5B99" d="M131.4,14.4h17.9V19h-12.7v7.1h10.3v4.5h-10.3v10.7h-5.2V14.4z"/>
			<path fill="#3A5B99" d="M155.4,17.9c-2,0-3.1-1.2-3.1-3.1c0-1.8,1.1-3.1,3.1-3.1c2,0,3.1,1.2,3.1,3.1
				C158.5,16.7,157.4,17.9,155.4,17.9z M152.9,41.3V21.6l5.1-0.7v20.4H152.9z"/>
			<path fill="#3A5B99" d="M175.7,41.3V29.2c0-2.9-1.2-3.9-3.4-3.9c-1.8,0-3.4,0.9-4.4,1.8v14.1h-5.1V21.6l5.1-0.7c0,0,0,3,0,3.1
				c1.8-1.9,4.1-3.2,6.5-3.2c4,0,6.4,2.6,6.4,6.8v13.6H175.7z"/>
			<path fill="#3A5B99" d="M198.7,12.6l5.1-0.7v29.4h-5.1c0,0,0-1.7,0-1.9c-1.3,1.3-3.1,2.6-5.6,2.6c-5.2,0-8.6-4.3-8.6-10.4
				c0-6.3,4.4-10.7,10-10.7c1.4,0,3,0.3,4.2,0.6V12.6z M195,24.9c-3.4,0-5.3,2.8-5.3,6.5c0,3.9,1.9,6.3,5,6.3c1.7,0,3-0.6,4.1-1.6
				c0,0.2,0-10,0-10C197.7,25.3,196.5,24.9,195,24.9z"/>
			<path fill="#3A5B99" d="M223.9,21.5v12.1c0,2.9,1.2,3.9,3.4,3.9c1.8,0,3.4-0.8,4.3-1.7V21.5h5.1v19.7l-5.1,0.7c0,0,0-2.8,0-2.9
				c-1.6,1.8-4,3-6.5,3c-3.9,0-6.2-2.6-6.2-6.8V21.5H223.9z"/>
			<path fill="#3A5B99" d="M248,42c-2.6,0-5.7-0.7-7.7-1.8l1.1-4c2,1.1,4.5,1.8,6.7,1.8c2,0,3.3-0.8,3.3-2.2c0-1.5-1.7-2.1-4-2.7
				c-3.7-0.9-6.7-2.4-6.7-6.1c0-3.7,3.1-6.2,7.9-6.2c2.5,0,5.4,0.6,7.2,1.6l-1.1,4c-1.9-1-4.5-1.6-6.2-1.6c-1.8,0-3,0.7-3,2
				c0,1.5,1.7,2,4,2.6c3.8,0.9,6.8,2.4,6.8,6.2C256.2,39.2,253,42,248,42z"/>
			<path fill="#3A5B99" d="M279,42c-5.8,0-10-4-10-10.5c0-6.5,4.4-10.6,10.3-10.6c5.8,0,10,4,10,10.6C289.3,37.9,284.8,42,279,42z
				 M279.1,24.9c-3.3,0-5.1,2.7-5.1,6.5c0,3.8,1.9,6.4,5.2,6.4c3.3,0,5.1-2.6,5.1-6.4C284.2,27.6,282.4,24.9,279.1,24.9z"/>
			<path fill="#3A5B99" d="M306,41.3V29.2c0-2.9-1.2-3.9-3.4-3.9c-1.8,0-3.4,0.9-4.4,1.8v14.1h-5.1V21.6l5.1-0.7c0,0,0,3,0,3.1
				c1.8-1.9,4.1-3.2,6.5-3.2c4,0,6.4,2.6,6.4,6.8v13.6H306z"/>
		</g>
		<g>
			<g>
				<path fill="#3A5B99" d="M131.4,59.2h28.3v7.2h-20.1v11.2H156v7.1h-16.3v16.9h-8.2V59.2z"/>
				<path fill="#3A5B99" d="M179.3,98.1c-2.2,2.7-5,4.6-8.8,4.6c-5.6,0-9.7-3.9-9.7-8.8c0-5.8,4.2-10.7,18.6-11.2V82
					c0-4.2-1.8-6-6.3-6c-3.2,0-7.1,1.4-10.4,3.3L161,73c3.1-1.9,8-3.7,13.1-3.7c9.7,0,13.4,4.3,13.2,12.9v11.2
					c0,2.4,0.4,2.7,2.8,2.9l-0.6,6.1c-6,0.7-8.8-1.2-9.9-4.3H179.3z M179.3,87c-7.8,1-10.7,2.5-10.7,5.8c0,2.4,1.8,4.1,4.7,4.1
					c2.5,0,4.6-1.2,6-2.7V87z"/>
				<path fill="#3A5B99" d="M208.8,102.7c-10.2,0-16.3-6.3-16.3-16.6c0-10.2,6.7-16.8,16.5-16.8c4.3,0,8,1,10.8,2.7l-1.7,6.5
					c-2.6-1.6-5.6-2.5-8.5-2.5c-5.8,0-8.9,3.9-8.9,10c0,6.4,3.6,10.1,8.9,10.1c3.3,0,6.3-0.9,8.7-2.4l1.3,6.5
					C217,101.8,213,102.7,208.8,102.7z"/>
				<path fill="#3A5B99" d="M230.5,87.8c0.3,5.1,3.8,8.6,9.4,8.6c3.3,0,6.9-1.1,9.8-2.9l1,6.7c-3,1.6-7.1,2.6-11.4,2.6
					c-10.1,0-16.7-6.4-16.7-16.4c0-10.2,6.8-17,16.2-17c8.3,0,12.9,5,12.9,12.7c0,1.7-0.3,3.9-0.7,5.2c-0.1,0-20.5,0.3-20.5,0.3
					V87.8z M244.1,82.8c0-0.1,0-0.5,0-0.5c0-4.2-1.8-6.9-6-6.9c-4.4,0-7.1,3.6-7.5,7.5L244.1,82.8z"/>
				<path fill="#3A5B99" d="M272.1,102.7c-2,0-5-0.4-7-1.1l-7.7,1.2V56.3l8-1.1c0,0,0,17.8,0,18.2c2.1-2,5-4,8.8-4
					c8.3,0,13.7,6.7,13.7,16.4C287.9,95.7,281,102.7,272.1,102.7z M271.9,76.1c-2.7,0-4.7,1-6.5,2.6c0-0.2,0,15.8,0,15.8
					c1.5,1.2,3.5,1.8,5.9,1.8c5.4,0,8.4-4.4,8.4-10.2C279.8,80,276.8,76.1,271.9,76.1z"/>
				<path fill="#3A5B99" d="M307.6,102.7c-9.2,0-15.8-6.3-15.8-16.7c0-10.3,7-16.8,16.3-16.8c9.2,0,15.8,6.4,15.8,16.7
					C323.8,96.3,316.7,102.7,307.6,102.7z M307.7,75.7c-5.2,0-8.1,4.2-8.1,10.3c0,6,3,10.2,8.2,10.2c5.2,0,8-4.1,8-10.1
					C315.9,80,312.9,75.7,307.7,75.7z"/>
				<path fill="#3A5B99" d="M343.5,102.7c-9.2,0-15.8-6.3-15.8-16.7c0-10.3,7-16.8,16.2-16.8c9.2,0,15.8,6.4,15.8,16.7
					C359.8,96.3,352.7,102.7,343.5,102.7z M343.7,75.7c-5.2,0-8.1,4.2-8.1,10.3c0,6,3,10.2,8.2,10.2c5.2,0,8-4.1,8-10.1
					C351.8,80,348.8,75.7,343.7,75.7z"/>
				<path fill="#3A5B99" d="M373.3,86.6v15.1h-8V56.3l8-1.1v29.1h0.1l11.2-13.9h9.6l-13,14.9l13.1,16.5h-9.6l-11.3-15.1H373.3z"/>
			</g>
		</g>
		<g>
			<path fill="#3C5A99" d="M102.2,7.6H13.8c-3,0-5.5,2.5-5.5,5.5v88.4c0,3,2.5,5.5,5.5,5.5h88.4c3,0,5.5-2.5,5.5-5.5V13.1
				C107.7,10.1,105.2,7.6,102.2,7.6z"/>
			<path fill="#FFFFFF" d="M89.8,68.5l1.9-15H76.9V44c0-4.3,1.2-7.3,7.4-7.3l7.9,0V23.2c-1.4-0.2-6.1-0.6-11.6-0.6
				c-11.5,0-19.3,7-19.3,19.8v11.1H48.4v15h12.9V107h15.5V68.5H89.8z"/>
		</g>
	</g>
</g>
</svg>
